<svg width="39" height="39" viewBox="0 0 39 39" fill="none" xmlns="http://www.w3.org/2000/svg">
<g clip-path="url(#clip0)">
<path d="M34.2016 16.3231H30.8359C31.0811 17.2732 31.226 18.2659 31.226 19.2923C31.226 25.8503 25.9004 31.1651 19.3306 31.1651C12.7612 31.1651 7.4353 25.8503 7.4353 19.2923C7.4353 18.2659 7.58081 17.2732 7.82604 16.3231H4.46002V32.6493C4.46002 33.4678 5.12605 34.1322 5.94852 34.1322H32.7131C33.5356 34.1322 34.2016 33.4678 34.2016 32.6493V16.3231ZM34.2016 5.93522C34.2016 5.11606 33.5356 4.45133 32.7131 4.45133H28.2531C27.4316 4.45133 26.7663 5.11606 26.7663 5.93522V10.3883C26.7663 11.2074 27.4316 11.8721 28.2531 11.8721H32.7131C33.5356 11.8721 34.2016 11.2074 34.2016 10.3883V5.93522ZM19.3306 11.8721C15.2241 11.8721 11.8957 15.1938 11.8957 19.2923C11.8957 23.3901 15.2241 26.7134 19.3306 26.7134C23.4371 26.7134 26.7663 23.3901 26.7663 19.2923C26.7663 15.1938 23.4371 11.8721 19.3306 11.8721ZM34.2016 38.5859H4.46002C1.99707 38.5859 0 36.5921 0 34.1322V4.45133C0 1.99284 1.99707 0 4.46002 0H34.2016C36.6649 0 38.6616 1.99284 38.6616 4.45133V34.1322C38.6616 36.5921 36.6649 38.5859 34.2016 38.5859Z" fill="white"/>
</g>
<defs>
<clipPath id="clip0">
<rect width="38.7275" height="38.6521" fill="white"/>
</clipPath>
</defs>
</svg>
