<?xml version="1.0" encoding="iso-8859-1"?>
<!-- Generator: Adobe Illustrator 16.0.0, SVG Export Plug-In . SVG Version: 6.00 Build 0)  -->
<!DOCTYPE svg PUBLIC "-//W3C//DTD SVG 1.1//EN" "http://www.w3.org/Graphics/SVG/1.1/DTD/svg11.dtd">
<svg version="1.1" id="Capa_1" xmlns="http://www.w3.org/2000/svg" xmlns:xlink="http://www.w3.org/1999/xlink" x="0px" y="0px"
	 width="95.352px" height="95.352px" viewBox="0 0 95.352 95.352" style="enable-background:new 0 0 95.352 95.352;"
	 xml:space="preserve">
<g>
	<path d="M43.342,95.352c28.334,0,51.302-21.347,51.302-47.675C94.644,21.343,71.676,0,43.342,0C25.572,0,9.917,8.396,0.708,21.151
		l14.218,2.315l3.915,27.673c0.014-0.046,0.279-0.018,0.279-0.018l4.295-26.277l14.231,2.3v42.657l-8.981,1.453V52.927
		c0,0,0.336-7.896,0.136-9.247c0,0-0.39,0.008-0.395-0.017l-5.362,28.521l-8.915,1.45l-6.56-30.727l-0.396-0.023
		c-0.138,1.109,0.48,10.757,0.48,10.757v21.043l-5.864,0.957C11.108,87.582,26.252,95.352,43.342,95.352 M19.211,51.02L19.211,51.02
		 M70.726,53.48l-1.314-10.493h-0.287L67.79,53.646L70.726,53.48z M77.086,63.383l-4.91,0.794l-0.577-3.976l-4.79,0.58l-0.598,4.367
		l-6.334,1.036l6.271-34.375l5.957,0.956L77.086,63.383z M61.317,40.017l-5.56-0.438v27.26l-8.284,1.354l-0.015-29.29l-7.046-0.574
		V27.588l20.907,3.379v9.05H61.317z"/>
</g>
<g>
</g>
<g>
</g>
<g>
</g>
<g>
</g>
<g>
</g>
<g>
</g>
<g>
</g>
<g>
</g>
<g>
</g>
<g>
</g>
<g>
</g>
<g>
</g>
<g>
</g>
<g>
</g>
<g>
</g>
</svg>
