<svg width="56" height="70" viewBox="0 0 56 70" fill="none" xmlns="http://www.w3.org/2000/svg">
<path d="M0.261 15.269C0.261 11.389 1.68367 8.091 4.529 5.375C7.37433 2.659 10.8017 1.30099 14.811 1.30099C17.9797 1.30099 21.9243 2.659 26.645 5.375C29.2317 6.86233 31.2363 7.60599 32.659 7.60599C33.241 7.60599 34.017 7.41199 34.987 7.024V6.442C34.987 2.562 35.957 0.621998 37.897 0.621998C38.867 0.621998 39.352 1.204 39.352 2.368C39.352 3.66133 38.479 5.53666 36.733 7.994V11.098C39.643 9.41666 41.4213 7.18566 42.068 4.405C42.7793 4.85766 43.6847 5.375 44.784 5.957C48.47 7.76766 50.895 9.449 52.059 11.001C53.7403 13.2643 54.581 16.1743 54.581 19.731C54.581 23.2877 53.4493 26.327 51.186 28.849C49.3753 30.9183 46.7563 32.147 43.329 32.535C42.4237 32.6643 41.971 32.8907 41.971 33.214C41.971 33.5373 42.262 33.699 42.844 33.699C42.7147 33.699 43.4583 33.6667 45.075 33.602C46.6917 33.5373 47.5647 33.505 47.694 33.505C51.186 33.505 53.4493 34.7013 54.484 37.094C54.7427 37.8053 54.9367 39.2927 55.066 41.556C55.1307 42.0733 55.163 42.817 55.163 43.787V49.704C55.163 51.9673 55.3247 53.7133 55.648 54.942C49.828 55.136 45.8187 55.7503 43.62 56.785C39.2873 58.7897 36.927 62.0877 36.539 66.679C32.7237 64.8037 28.6173 63.187 24.22 61.829C19.3053 67.067 14.5523 69.686 9.961 69.686C7.76233 69.686 5.95167 68.9747 4.529 67.552C3.10633 66.194 2.395 64.448 2.395 62.314C2.395 58.822 3.947 56.009 7.051 53.875C10.2197 51.6763 14.326 50.577 19.37 50.577C19.2407 50.577 22.377 50.9327 28.779 51.644L29.652 51.741C29.846 51.2237 29.943 50.8357 29.943 50.577C29.943 48.8957 28.5527 47.182 25.772 45.436C24.026 44.3367 22.28 43.787 20.534 43.787C19.1113 43.787 18.109 44.3367 17.527 45.436C16.4923 44.7247 15.975 43.7223 15.975 42.429C15.975 40.0363 17.2683 38.4197 19.855 37.579C19.5317 37.5143 19.176 37.482 18.788 37.482C17.1713 37.482 15.781 38.0317 14.617 39.131C13.453 40.2303 12.871 41.556 12.871 43.108C12.871 46.018 14.423 47.6347 17.527 47.958C16.8157 48.2813 16.072 48.443 15.296 48.443C13.0973 48.443 11.2543 47.667 9.767 46.115C8.27967 44.563 7.536 42.6553 7.536 40.392C7.536 37.9347 8.34433 35.736 9.961 33.796C11.5777 31.856 13.6793 30.6597 16.266 30.207C16.3307 27.7497 16.654 25.842 17.236 24.484C17.8827 23.0613 19.079 21.574 20.825 20.022C22.571 18.47 24.802 17.0473 27.518 15.754C28.0353 15.4953 29.1347 14.978 30.816 14.202C32.174 13.5553 33.2733 13.038 34.114 12.65L34.987 12.262V9.449C31.689 11.4537 28.5203 12.456 25.481 12.456C24.3817 12.456 22.571 12.3913 20.049 12.262C17.527 12.1327 16.363 12.068 16.557 12.068C13.259 12.068 10.8663 12.456 9.379 13.232C6.92167 14.4607 5.693 16.433 5.693 19.149C5.693 20.5717 6.11333 21.8003 6.954 22.835C7.85933 23.805 8.95867 24.29 10.252 24.29C11.222 24.29 12.289 23.8697 13.453 23.029C14.229 22.447 14.7787 22.156 15.102 22.156C15.6193 22.156 15.878 22.4147 15.878 22.932C15.878 23.3847 15.4577 23.902 14.617 24.484C13.1943 25.5187 11.61 26.036 9.864 26.036C7.21267 26.036 4.94933 25.0013 3.074 22.932C1.19867 20.798 0.261 18.2437 0.261 15.269ZM36.733 14.202V31.565C36.6683 31.565 36.927 31.5973 37.509 31.662C39.1257 31.662 40.4513 30.789 41.486 29.043C42.5853 27.2323 43.135 24.9367 43.135 22.156C43.135 19.7633 42.6177 17.8233 41.583 16.336C40.5483 14.8487 39.1903 14.105 37.509 14.105C37.4443 14.105 37.315 14.105 37.121 14.105C36.9917 14.1697 36.8623 14.202 36.733 14.202ZM34.987 14.396C30.2017 15.4307 27.809 18.5347 27.809 23.708C27.809 25.9067 28.585 28.6873 30.137 32.05C32.2063 36.5767 33.241 40.295 33.241 43.205C33.241 45.7917 32.465 48.734 30.913 52.032L31.495 52.226C31.689 52.2907 32.174 52.42 32.95 52.614L34.502 53.002L34.987 53.196V14.396ZM36.733 35.833V53.584L37.315 53.778C38.479 54.1013 40.4513 54.7803 43.232 55.815L43.911 56.009C43.3937 54.651 43.135 52.711 43.135 50.189V40.683C43.135 38.8077 42.6823 37.482 41.777 36.706C41.195 36.1887 39.74 35.8977 37.412 35.833C37.412 35.833 37.1857 35.833 36.733 35.833ZM22.474 61.441C20.2107 60.9237 18.109 60.665 16.169 60.665C13.647 60.665 11.61 61.1177 10.058 62.023C8.506 62.8637 7.73 63.9953 7.73 65.418C7.73 67.0993 8.73233 67.94 10.737 67.94C14.229 67.94 18.1413 65.7737 22.474 61.441Z" fill="white"/>
</svg>
