<svg width="61" height="77" viewBox="0 0 61 77" fill="none" xmlns="http://www.w3.org/2000/svg">
<g filter="url(#filter0_d)">
<path d="M7.42982 0.98621C6.88021 1.40596 2.0179 7.32261 1.88919 7.74236C1.64397 8.53952 1.85381 8.88919 4.70617 12.2888C6.76309 14.7226 7.52315 15.5344 7.80375 15.6176C8.63335 15.8271 9.47515 14.8204 9.28788 13.8269C9.22932 13.5188 8.77365 12.848 7.68663 11.5325L6.16712 9.67248H12.3269H18.4983L18.896 9.19725C19.1766 8.86145 19.2931 8.59573 19.2931 8.28767C19.2931 7.68615 19.0241 7.0985 18.6502 6.90286C18.4281 6.77657 16.7329 6.73496 12.2799 6.73496C8.93713 6.73496 6.20189 6.69335 6.20189 6.62327C6.20189 6.56706 6.85642 5.74216 7.66284 4.7771C9.27568 2.84698 9.47454 2.4411 9.19394 1.65781C8.90297 0.79057 8.08435 0.49711 7.42982 0.98621Z" fill="white"/>
<path d="M52.3032 0.986224C51.8823 1.29429 51.6249 2.03524 51.7304 2.56667C51.7774 2.76232 52.4905 3.72738 53.3201 4.72091C54.1503 5.71371 54.828 6.56707 54.828 6.62328C54.828 6.69336 52.058 6.73497 48.6682 6.73497C42.9989 6.73497 42.4731 6.76272 42.251 6.98682C41.6081 7.60221 41.5611 8.51179 42.1339 9.19726L42.531 9.67249H48.7024H54.8622L53.3427 11.5325C52.2556 12.8473 51.8 13.5189 51.7414 13.8269C51.5548 14.8197 52.3959 15.8271 53.2262 15.6176C53.5068 15.5337 54.2662 14.7226 56.3237 12.2742C59.1407 8.93081 59.328 8.62348 59.1291 7.78398C59.0242 7.32262 54.0795 1.27968 53.5183 0.916144C53.0859 0.650424 52.7357 0.665025 52.3032 0.986224Z" fill="white"/>
<path d="M32.8297 9.93896C31.5206 10.4427 30.5739 11.3661 29.8724 12.8349C29.6851 13.2123 29.5332 13.5342 29.5216 13.5619C29.51 13.5758 29.2063 13.4364 28.8439 13.24C27.4177 12.4567 26.0617 12.4706 24.6008 13.2962C23.2216 14.0657 22.1693 15.7439 21.8655 17.6324C21.7954 18.1077 21.7484 23.06 21.7484 31.1593V43.9438L19.4109 41.8458C16.9331 39.6354 16.3603 39.2163 15.2848 38.8382C14.3845 38.5309 12.7485 38.5309 11.8597 38.8382C10.2115 39.412 8.80908 40.6705 8.2247 42.1115C7.78062 43.1744 7.76903 44.7695 8.18932 45.8323C8.39977 46.3922 10.2468 48.672 17.6455 57.5685C22.6951 63.6254 27.2189 68.969 27.6861 69.4164C28.7262 70.41 30.5733 71.5291 31.9177 71.9481C32.8644 72.2561 33.0981 72.27 37.5285 72.27C42.5311 72.27 42.8819 72.2277 44.8339 71.4729C46.8328 70.7034 48.4573 69.4865 50.1055 67.5279C52.1508 65.0941 53.3318 62.4924 53.9747 59.0512C54.1382 58.1562 54.1736 56.6728 54.2083 48.7699C54.2669 38.7681 54.2437 38.3068 53.6587 36.8657C53.1915 35.7189 52.0575 34.4319 51.1224 33.9983C49.7901 33.369 47.9784 33.4946 46.809 34.2918L46.4351 34.5436L46.1661 33.8304C45.5701 32.2916 44.0738 30.9907 42.5543 30.6549C41.6661 30.4593 40.8591 30.571 39.9594 31.0046L39.2816 31.3265V23.3951C39.2816 18.2471 39.2347 15.1701 39.1529 14.6241C38.9773 13.505 38.557 12.4837 37.914 11.6304C36.6519 9.95284 34.5944 9.26736 32.8297 9.93896ZM35.4594 13.0583C35.7284 13.24 36.1023 13.6598 36.3012 13.9817L36.6519 14.5971L36.7105 28.0393C36.7691 42.8247 36.7221 41.9013 37.4821 42.3349C37.9494 42.6006 38.0433 42.6006 38.5222 42.321C39.1999 41.9436 39.2823 41.5239 39.2823 38.4601C39.2823 35.8722 39.2938 35.7043 39.5513 35.1167C39.7032 34.7809 40.0539 34.3056 40.3229 34.0815C40.7786 33.7041 40.9073 33.6618 41.7253 33.6618C42.5201 33.6618 42.6836 33.7034 43.0929 34.0392C43.3381 34.2487 43.6773 34.6546 43.8408 34.948C44.1214 35.4379 44.133 35.5496 44.1915 38.4732C44.2501 41.7881 44.2849 41.9422 44.9632 42.3342C45.4311 42.5999 45.5244 42.5999 46.0032 42.3203C46.5754 41.9998 46.7627 41.3983 46.7627 39.9712C46.7627 39.0477 46.8212 38.628 46.9847 38.2367C47.9546 35.9708 50.4794 35.9708 51.4499 38.2506C51.672 38.7543 51.6836 39.0901 51.6488 48.5319C51.614 58.1839 51.6018 58.2956 51.345 59.387C50.1177 64.4649 46.8212 68.1017 42.497 69.1369C41.8894 69.277 40.6267 69.3325 37.5291 69.3325C33.5434 69.3325 33.3445 69.3186 32.4448 69.0106C31.1241 68.5492 30.1774 67.9754 29.2069 67.0381C28.739 66.5767 24.3208 61.3726 19.3883 55.4559L10.4109 44.6994V44.0555C10.4109 43.216 10.8434 42.5868 11.7901 42.0268C12.3745 41.691 12.5966 41.6356 13.5085 41.6356C14.3149 41.6356 14.6889 41.7056 15.0866 41.9152C15.3788 42.0692 17.1789 43.5934 19.0955 45.3002C22.1815 48.0698 22.6256 48.4195 23.0111 48.4195C23.4906 48.4195 23.8877 48.1537 24.1097 47.6778C24.2268 47.4398 24.2732 44.0825 24.3202 32.4587L24.3787 17.5616L24.6709 17.0441C24.8344 16.7506 25.1736 16.3447 25.4188 16.1352C25.8281 15.7994 25.9916 15.7578 26.7748 15.7578C27.558 15.7578 27.7215 15.7994 28.1308 16.1352C28.3767 16.3447 28.7152 16.7506 28.8787 17.0441L29.1709 17.5616L29.2294 29.5212C29.288 42.67 29.2526 41.9006 30.0011 42.3342C30.469 42.5999 30.5623 42.5999 31.0411 42.3203C31.836 41.8728 31.8012 42.5999 31.8012 28.0802C31.8012 16.5681 31.8244 14.9176 31.9763 14.4555C32.5491 12.8341 34.1503 12.191 35.4594 13.0583Z" fill="white"/>
</g>
<defs>
<filter id="filter0_d" x="0" y="0" width="61" height="77" filterUnits="userSpaceOnUse" color-interpolation-filters="sRGB">
<feFlood flood-opacity="0" result="BackgroundImageFix"/>
<feColorMatrix in="SourceAlpha" type="matrix" values="0 0 0 0 0 0 0 0 0 0 0 0 0 0 0 0 0 0 127 0"/>
<feOffset dy="4"/>
<feColorMatrix type="matrix" values="0 0 0 0 0 0 0 0 0 0 0 0 0 0 0 0 0 0 0.25 0"/>
<feBlend mode="normal" in2="BackgroundImageFix" result="effect1_dropShadow"/>
<feBlend mode="normal" in="SourceGraphic" in2="effect1_dropShadow" result="shape"/>
</filter>
</defs>
</svg>
