<svg width="39" height="39" viewBox="0 0 39 39" fill="none" xmlns="http://www.w3.org/2000/svg">
<g clip-path="url(#clip0)">
<path d="M35.9996 0.667473H2.72792C1.59613 0.667473 0.66748 1.59612 0.66748 2.72791V35.9996C0.66748 37.1459 1.59613 38.0601 2.72792 38.0601H20.6334V23.579H15.758V17.9345H20.6334V13.7701C20.6334 8.93824 23.579 6.31191 27.8885 6.31191C29.9489 6.31191 31.7337 6.47152 32.2415 6.52956V11.5791H29.2524C26.9163 11.5791 26.452 12.6964 26.452 14.3215V17.92H32.0384L31.3129 23.5644H26.452V38.0456H35.9851C37.1314 38.0456 38.0456 37.1169 38.0456 35.9851V2.72791C38.0601 1.59612 37.1314 0.667473 35.9996 0.667473Z" fill="white"/>
</g>
<defs>
<clipPath id="clip0">
<rect y="7.62939e-06" width="38.7275" height="38.7275" fill="white"/>
</clipPath>
</defs>
</svg>
