<svg width="39" height="32" viewBox="0 0 39 32" fill="none" xmlns="http://www.w3.org/2000/svg">
<g clip-path="url(#clip0)">
<path d="M38.7275 3.72559C37.3027 4.35762 35.7713 4.78459 34.1643 4.97668C35.8044 3.99339 37.0644 2.43635 37.6577 0.580913C36.1223 1.49159 34.422 2.15267 32.6121 2.50896C31.1629 0.964703 29.0979 0 26.8126 0C22.4248 0 18.8671 3.55732 18.8671 7.94515C18.8671 8.56788 18.9374 9.17436 19.0729 9.75585C12.4695 9.42454 6.61484 6.26127 2.69617 1.45422C2.01217 2.62766 1.62036 3.99261 1.62036 5.44877C1.62036 8.2054 3.02301 10.6373 5.15508 12.0621C3.85263 12.0208 2.62743 11.6634 1.55629 11.0683C1.55553 11.1014 1.55553 11.1346 1.55553 11.1682C1.55553 15.0178 4.29436 18.229 7.92902 18.9591C7.2624 19.1406 6.56046 19.2378 5.83583 19.2378C5.32383 19.2378 4.82611 19.1879 4.34089 19.0952C5.35197 22.2517 8.28626 24.549 11.7631 24.6129C9.04387 26.7441 5.61799 28.0143 1.89538 28.0143C1.25404 28.0143 0.621538 27.9766 0 27.9032C3.51619 30.1575 7.69264 31.4731 12.1796 31.4731C26.794 31.4731 34.786 19.3661 34.786 8.86647C34.786 8.52199 34.7781 8.17945 34.7628 7.83865C36.3154 6.71826 37.6623 5.31903 38.7275 3.72559Z" fill="white"/>
</g>
<defs>
<clipPath id="clip0">
<rect width="38.7275" height="31.4731" fill="white"/>
</clipPath>
</defs>
</svg>
