<svg width="62" height="47" viewBox="0 0 62 47" fill="none" xmlns="http://www.w3.org/2000/svg">
<g>
<path d="M15.2971 46.9998L14.4854 44.0466L19.855 42.6014L21.0413 47.0627H23.851L23.7261 46.6857L48.7009 39.8367L50.574 46.937H53.3837L52.2598 42.7899L57.6294 41.3448L59.1279 46.937H61.9376L49.4501 -0.0629883H46.6405L47.2648 2.38755L41.8953 3.83273L40.8338 -0.0629883H38.0242L38.3363 1.1937L13.4864 8.04263L11.3635 0.06268H8.55388L9.49043 3.70707L4.12085 5.08942L2.74723 -0.000153817H0L12.4874 46.9998H15.2971ZM13.6737 40.8421L12.1128 35.0613L17.4824 33.6162L19.0433 39.3969L13.6737 40.8421ZM56.8177 38.2031L51.4481 39.6482L49.8872 33.8675L55.2568 32.4223L56.8177 38.2031ZM54.4451 29.2806L49.0755 30.7258L47.5146 24.945L52.8842 23.4998L54.4451 29.2806ZM52.0725 20.3581L46.7029 21.8033L45.142 16.0226L50.5116 14.5774L52.0725 20.3581ZM48.139 5.65493L49.6999 11.4357L44.3303 12.8809L42.7694 7.10011L48.139 5.65493ZM40.2719 8.29396L46.8278 32.8621L21.9154 39.5854L15.3595 15.0172L40.2719 8.29396ZM4.99496 8.23113L10.3646 6.78594L11.9255 12.5667L6.55589 14.0119L4.99496 8.23113ZM7.36757 17.2164L12.7372 15.7712L14.2981 21.552L8.9285 22.9972L7.36757 17.2164ZM9.74018 26.1389L15.1098 24.6937L16.6707 30.4744L11.3011 31.9196L9.74018 26.1389Z" fill="white"/>
</g>
<defs>
<clipPath id="clip0">
<rect width="62" height="47" fill="white"/>
</clipPath>
</defs>
</svg>
