<svg width="32" height="54" viewBox="0 0 32 54" fill="none" xmlns="http://www.w3.org/2000/svg">
<g clip-path="url(#clip0)">
<path d="M13.4449 53.0176C6.9962 53.0176 1.64259 51.2176 0 48.6539C0.365019 51.5994 6.26616 53.9448 13.4449 53.9448C20.6844 53.9448 26.5247 51.5994 26.8897 48.6539C25.2472 51.2176 19.8935 53.0176 13.4449 53.0176ZM15.7567 41.0176V44.7812H15.2091V37.6903H15.1483C14.4791 37.6358 13.6882 37.6358 12.9582 37.4721C12.5932 37.4176 12.2281 37.363 11.8023 37.2539L11.6198 37.1994V44.7812H11.1331V41.0176C4.80608 41.4539 0 43.7448 0 46.5267C0 49.5812 6.02281 52.0903 13.4449 52.0903C20.8669 52.0903 26.9506 49.5812 26.9506 46.5267C26.9506 43.7448 22.0837 41.4539 15.7567 41.0176ZM26.2205 2.2903C24.1521 1.19939 22.0837 0.490299 18.8593 0.108481C15.635 -0.273337 11.5589 0.217572 9.36882 2.72666C10.5247 2.72666 11.9848 2.78121 13.6274 2.99939L12.9582 4.85394C10.9506 4.63575 9.24715 4.63575 8.09126 4.6903L7.90875 5.12666L7.84791 5.34484C9.06464 5.39939 10.7072 5.50848 12.5932 5.78121L11.924 7.63575C9.85551 7.36303 8.21293 7.25394 7.11787 7.25394L6.87452 7.96303C8.03042 8.07212 9.61217 8.2903 11.5589 8.61757L10.8897 10.4721C8.88213 10.0903 7.23954 9.92666 6.14449 9.81757L5.90114 10.5267C6.9962 10.6903 8.57795 11.0176 10.5247 11.3994L9.85551 13.2539C7.84791 12.8176 6.26616 12.5448 5.23194 12.3812L5.04943 13.0903C6.08365 13.363 7.60456 13.7448 9.61217 14.2358L8.94297 16.0903C6.93536 15.5994 5.41445 15.2176 4.38023 14.9448L4.13688 15.6539C5.04943 15.9812 6.57034 16.4721 8.57795 17.0721L7.90875 18.9267C5.90114 18.3812 4.38023 17.8903 3.40684 17.5085L3.22433 18.163C4.01521 18.5448 5.53612 19.1994 7.60456 19.8539L6.93536 21.7085C4.92776 21.1085 3.46768 20.5085 2.55513 20.0721L2.31179 20.6721C2.98099 21.1085 4.44106 21.8721 6.57034 22.6358L5.90114 24.4903C4.07605 23.8358 2.67681 23.1812 1.76426 22.6358L1.70342 23.2903C2.37262 23.7812 3.65019 24.5994 5.53612 25.363L4.86692 27.2176C3.8327 26.7812 2.92015 26.3994 2.19011 25.963C2.73764 27.2721 3.65019 28.4721 4.86692 29.3448C4.98859 29.4539 5.11027 29.5085 5.29278 29.6176C7.72624 30.8176 11.4373 31.4721 15.8175 31.4721H16.4867L17.2776 29.3994H16.6692C12.654 29.2903 9.36882 28.6903 6.87452 27.9267L6.93536 27.8176L7.54373 26.0721C10.1597 26.8903 13.6274 27.4903 18.0684 27.4903L18.3726 26.7267C14.1141 26.5085 10.6464 25.8539 7.90875 25.0903L8.57795 23.2358C11.2548 23.9994 14.7224 24.6539 19.1027 24.8721L19.4068 24.1085C15.2091 23.6721 11.6806 23.0176 8.94297 22.2539L9.61217 20.3994C12.3498 21.163 15.8175 21.8176 20.076 22.2539H20.1369L20.4411 21.4903C16.3042 20.8358 12.7757 20.1267 9.97719 19.4176L10.6464 17.563C13.384 18.2721 16.8517 18.9812 20.9278 19.6358L21.1711 19.6903L21.4753 18.9267H21.2319C17.2776 18.0539 13.8099 17.2903 11.0114 16.6358L11.6806 14.7812C14.4791 15.4358 17.8859 16.1994 21.7795 17.0721C22.0228 17.1267 22.2053 17.2358 22.327 17.3994C22.8745 16.8539 23.6654 16.4721 24.5171 16.4721C24.8213 16.4721 25.1863 16.5267 25.4905 16.6358C26.2205 16.8539 26.8289 17.3448 27.1939 17.9994C27.4373 18.4358 27.4981 18.9267 27.4373 19.4176C27.3156 18.5994 26.7681 17.8903 25.8555 17.6176C24.5779 17.2358 23.2395 17.8358 22.7529 18.9267L17.4601 32.563C10.7072 32.7267 6.57034 31.4721 4.38023 29.9448C4.38023 29.9994 4.56274 30.9267 6.69202 33.1085C7.17871 33.6539 8.69962 34.7448 9.36882 35.1267L10.3422 35.6176C10.7072 35.7812 11.0114 35.8903 11.3764 35.9994L12.4715 36.3267L13.5665 36.5448C14.2966 36.6539 14.9658 36.7085 15.6958 36.763C16.4259 36.763 17.0951 36.763 17.7643 36.7085C18.4335 36.6539 19.1027 36.5994 19.7719 36.4903L21.1103 36.2721L21.597 35.0721L22.5095 32.6721L22.9354 31.5812C24.2738 30.6539 25.308 29.3994 25.8555 27.8721L31.5741 11.9994C33.0951 7.85394 30.4183 4.41757 26.2205 2.2903ZM23.3004 15.5994C23.1787 16.0358 22.692 16.3085 22.2662 16.2539C22.1445 16.2539 22.0837 16.2539 21.962 16.1994C18.1901 15.1085 14.8441 14.2903 12.0456 13.6903L12.7148 11.8358C15.5133 12.4358 18.8593 13.3085 22.6312 14.3448C23.1787 14.563 23.4829 15.1085 23.3004 15.5994ZM24.0304 13.0358C23.8479 13.4176 23.4221 13.6358 22.9962 13.6358C22.8745 13.6358 22.7529 13.6358 22.6312 13.5812C19.1027 12.3267 15.8175 11.4539 13.0798 10.9085L13.749 9.05394C16.5475 9.65394 19.8327 10.5267 23.4221 11.8358C23.9696 11.9994 24.2129 12.5448 24.0304 13.0358ZM24.7605 10.4721C24.5779 10.7994 24.1521 11.0176 23.7871 11.0176C23.6654 11.0176 23.4829 10.963 23.3612 10.9085C20.0152 9.43575 16.8517 8.56303 14.1749 8.01757L14.8441 6.16303C17.6426 6.70848 20.9278 7.63575 24.3346 9.16303C24.7605 9.43575 25.0038 9.98121 24.7605 10.4721ZM25.4297 7.90848C25.2472 8.23575 24.8821 8.39939 24.4563 8.39939C24.2738 8.39939 24.0913 8.34484 23.9087 8.2903C20.8061 6.65394 17.7034 5.72666 15.0266 5.23575L15.5741 3.65394C15.635 3.54484 15.635 3.4903 15.635 3.38121C18.4943 3.92666 21.7186 4.90848 25.0038 6.65394C25.5513 6.87212 25.7338 7.47212 25.4297 7.90848Z" fill="white"/>
</g>
<defs>
<clipPath id="clip0">
<rect width="32" height="54" fill="white"/>
</clipPath>
</defs>
</svg>
