<?xml version="1.0" encoding="iso-8859-1"?>
<!-- Generator: Adobe Illustrator 16.0.0, SVG Export Plug-In . SVG Version: 6.00 Build 0)  -->
<!DOCTYPE svg PUBLIC "-//W3C//DTD SVG 1.1//EN" "http://www.w3.org/Graphics/SVG/1.1/DTD/svg11.dtd">
<svg version="1.1" id="Capa_1" xmlns="http://www.w3.org/2000/svg" xmlns:xlink="http://www.w3.org/1999/xlink" x="0px" y="0px"
	 width="93.584px" height="93.584px" viewBox="0 0 93.584 93.584" style="enable-background:new 0 0 93.584 93.584;"
	 xml:space="preserve">
<g>
	<path d="M46.794,0C20.976,0,0.002,20.938,0.002,46.792c0,25.854,20.974,46.792,46.792,46.792c25.839,0,46.788-20.938,46.788-46.792
		C93.582,20.935,72.633,0,46.794,0z M41.751,75.086c0,0-10.472-30.082-11.059-31.692v31.692H18.937V18.944h14.44l18.889,56.142
		H41.751z M75.044,75.086H63.253V43.394c-0.456,1.244-6.86,19.738-8.981,25.991l-5.269-15.724l11.588-34.717h14.453V75.086z"/>
</g>
<g>
</g>
<g>
</g>
<g>
</g>
<g>
</g>
<g>
</g>
<g>
</g>
<g>
</g>
<g>
</g>
<g>
</g>
<g>
</g>
<g>
</g>
<g>
</g>
<g>
</g>
<g>
</g>
<g>
</g>
</svg>
