<svg width="41" height="41" viewBox="0 0 41 41" fill="none" xmlns="http://www.w3.org/2000/svg">
<g clip-path="url(#clip0)">
<path d="M25.4901 0.660104C14.6416 -2.20637 3.48443 4.36447 0.662053 15.213C-2.16032 26.0615 4.36642 37.2187 15.259 40.041C26.1075 42.8634 37.2647 36.3367 40.0871 25.4441C42.9095 14.5515 36.3827 3.48248 25.4901 0.660104ZM16.0528 36.8659C6.9683 34.4845 1.45585 25.1795 3.83722 16.0509C6.2186 6.92225 15.5677 1.4539 24.6522 3.83528C33.7809 6.21665 39.2492 15.5658 36.9119 24.6503C34.5306 33.7789 25.1814 39.2473 16.0528 36.8659ZM18.4342 27.7814C22.5355 28.8398 26.7249 26.3702 27.7833 22.313C28.8417 18.2117 26.3721 14.0223 22.315 12.9639C18.2578 11.9055 14.0242 14.3751 12.9658 18.4322C11.8634 22.4894 14.3329 26.723 18.4342 27.7814ZM21.874 14.5074C25.0932 15.3453 27.0336 18.6527 26.1957 21.872C25.3578 25.0913 22.0504 27.0317 18.8311 26.1938C15.6118 25.3559 13.6714 22.0484 14.5093 18.8291C15.3913 15.6099 18.6547 13.6695 21.874 14.5074ZM19.9336 21.9602C20.8156 22.1807 21.6976 21.6515 21.9181 20.7695C22.1386 19.8875 21.6094 19.0055 20.7274 18.785C19.8454 18.5645 18.9634 19.0937 18.7429 19.9757C18.5665 20.8136 19.0957 21.6956 19.9336 21.9602ZM20.5951 19.4906C21.0802 19.6229 21.3889 20.108 21.2566 20.5931C21.1243 21.0782 20.6392 21.3869 20.1541 21.2546C19.669 21.1223 19.3603 20.6372 19.4926 20.1521C19.6249 19.6229 20.11 19.3583 20.5951 19.4906ZM22.9765 10.2738C19.7131 9.43592 16.3615 10.2297 13.8919 12.1701L14.5093 12.9198C16.7584 11.1558 19.7572 10.4502 22.7119 11.1999C25.7547 11.9937 28.0479 14.1987 29.1063 16.8888L30.0324 16.536C28.8858 13.5813 26.328 11.1558 22.9765 10.2738ZM17.7286 30.4273C21.0802 31.3093 24.4758 30.4273 26.9454 28.3988L26.328 27.6491C24.0789 29.5012 20.992 30.295 17.9491 29.5012C14.9944 28.7516 12.7453 26.6789 11.6429 24.077L10.7168 24.4298C11.9957 27.2963 14.5093 29.5894 17.7286 30.4273ZM23.6379 7.76014C19.5367 6.70175 15.3913 7.71604 12.2602 10.1415L12.8776 10.8912C15.7441 8.64213 19.5808 7.71604 23.3733 8.68623C27.2541 9.70052 30.1647 12.4788 31.5318 15.9627L32.4579 15.6099C31.0026 11.8614 27.8274 8.81853 23.6379 7.76014ZM9.26148 24.959L8.33538 25.3118C9.83477 28.972 12.9658 31.8826 17.0671 32.941C21.2566 34.0435 25.4901 32.941 28.6212 30.3832L28.0038 29.6335C25.1373 32.0149 21.2125 33.0292 17.3317 32.0149C13.5391 31.0447 10.6286 28.3547 9.26148 24.959ZM24.0789 6.08436C28.8417 7.31914 32.4579 10.7589 34.0896 15.0366L35.0156 14.6838C33.2517 10.1415 29.415 6.48125 24.3435 5.15826C19.3603 3.87937 14.3329 5.11416 10.6286 8.06884L11.246 8.81853C14.7298 6.04025 19.4485 4.89367 24.0789 6.08436ZM16.6702 34.6168C12.0398 33.4261 8.46768 30.0745 6.7478 25.9733L5.82171 26.282C7.62979 30.6919 11.4224 34.2199 16.4056 35.5429C21.4771 36.8659 26.6367 35.5429 30.3852 32.4559L29.7678 31.7062C26.2398 34.6168 21.3889 35.8516 16.6702 34.6168Z" fill="white"/>
</g>
<defs>
<clipPath id="clip0">
<rect width="40.748" height="40.748" fill="white"/>
</clipPath>
</defs>
</svg>
